<svg xmlns="http://www.w3.org/2000/svg" viewBox="0 0 640 360" width="640" height="360">
<defs>
<linearGradient id="bg" x1="0" y1="0" x2="1" y2="1"><stop offset="0" stop-color="#1c2144"/><stop offset="1" stop-color="#0f1222"/></linearGradient>
<linearGradient id="sky" x1="0" y1="0" x2="0" y2="1"><stop offset="0" stop-color="#3b1f73"/><stop offset="1" stop-color="#e0607e"/></linearGradient>
<linearGradient id="jungle" x1="0" y1="0" x2="0" y2="1"><stop offset="0" stop-color="#a7f3d0"/><stop offset="1" stop-color="#15803d"/></linearGradient>
<linearGradient id="acc" x1="0" y1="0" x2="1" y2="0"><stop offset="0" stop-color="#8b6cff"/><stop offset="1" stop-color="#2dd4f0"/></linearGradient>
</defs>
<rect width="640" height="360" rx="18" fill="url(#bg)"/>
<circle cx="560" cy="60" r="120" fill="#8b6cff" opacity=".12"/><circle cx="70" cy="320" r="110" fill="#2dd4f0" opacity=".1"/>
<!-- laptop: drift game -->
<rect x="54" y="78" width="300" height="186" rx="12" fill="#0b0d17" stroke="#3a4170" stroke-width="3"/>
<rect x="66" y="90" width="276" height="162" rx="4" fill="url(#sky)"/>
<path d="M120 252 L190 212 L150 190 L230 146 L190 124 L250 92 L278 92 L218 126 L258 148 L178 192 L218 214 L150 252Z" fill="#2c2f4a"/>
<path d="M120 252 L190 212 L150 190 L230 146 L190 124 L250 92" fill="none" stroke="#fde047" stroke-width="2" stroke-dasharray="7 6" opacity=".8"/>
<rect x="196" y="160" width="20" height="12" rx="3" fill="#ef4444" transform="rotate(-28 206 166)"/>
<circle cx="230" cy="128" r="4" fill="#fde047"/><circle cx="242" cy="121" r="4" fill="#fde047"/>
<path d="M30 264 H378 L362 282 H46Z" fill="#3a4170"/>
<!-- tablet: tile puzzle -->
<rect x="380" y="96" width="150" height="196" rx="16" fill="#0b0d17" stroke="#3a4170" stroke-width="3"/>
<rect x="392" y="110" width="126" height="168" rx="6" fill="#1f2a1d"/>
<g fill="#f5efe0" stroke="#c9b88f" stroke-width="1.5">
<rect x="400" y="120" width="34" height="34" rx="5"/><rect x="438" y="120" width="34" height="34" rx="5"/><rect x="476" y="120" width="34" height="34" rx="5"/>
<rect x="400" y="158" width="34" height="34" rx="5"/><rect x="438" y="158" width="34" height="34" rx="5"/><rect x="476" y="158" width="34" height="34" rx="5"/>
<rect x="400" y="196" width="34" height="34" rx="5"/><rect x="438" y="196" width="34" height="34" rx="5"/><rect x="476" y="196" width="34" height="34" rx="5"/>
<rect x="400" y="234" width="34" height="34" rx="5"/><rect x="438" y="234" width="34" height="34" rx="5"/><rect x="476" y="234" width="34" height="34" rx="5"/>
</g>
<g><circle cx="417" cy="137" r="9" fill="#eab308"/><path d="M455 128l4 8 9 1-7 6 2 9-8-5-8 5 2-9-7-6 9-1z" fill="#dc2626"/><circle cx="493" cy="137" r="9" fill="#2563eb"/>
<circle cx="417" cy="175" r="9" fill="#2563eb"/><circle cx="455" cy="175" r="9" fill="#eab308"/><path d="M493 166l4 8 9 1-7 6 2 9-8-5-8 5 2-9-7-6 9-1z" fill="#dc2626"/>
<rect x="408" y="207" width="18" height="12" rx="3" fill="#4d7c0f"/><circle cx="455" cy="213" r="9" fill="#eab308"/><rect x="484" y="207" width="18" height="12" rx="3" fill="#4d7c0f"/>
<path d="M417 242l4 8 9 1-7 6 2 9-8-5-8 5 2-9-7-6 9-1z" fill="#dc2626"/><circle cx="455" cy="251" r="9" fill="#2563eb"/><circle cx="493" cy="251" r="9" fill="#eab308"/></g>
<!-- phone: temple runner -->
<rect x="540" y="130" width="78" height="150" rx="14" fill="#0b0d17" stroke="#3a4170" stroke-width="3"/>
<rect x="548" y="142" width="62" height="126" rx="6" fill="url(#jungle)"/>
<path d="M563 268 L575 172 L583 172 L595 268Z" fill="#d6c7a1"/>
<path d="M567 236 H591 M570 210 H588 M572 190 H586" stroke="#a8946a" stroke-width="2"/>
<circle cx="579" cy="226" r="5" fill="#f2c094"/><rect x="574" y="231" width="10" height="16" rx="3" fill="#0f766e"/>
<circle cx="560" cy="170" r="10" fill="#166534"/><circle cx="600" cy="176" r="12" fill="#166534"/>
<!-- tag line -->
<rect x="54" y="306" width="532" height="32" rx="16" fill="#151933" stroke="#2a3060"/>
<text x="320" y="327" font-family="system-ui,-apple-system,Segoe UI,Roboto,sans-serif" font-size="15" font-weight="700" fill="#c4c8ea" text-anchor="middle">Desktop · Chromebook · Tablet · Phone — one tap to play</text>
<rect x="54" y="306" width="6" height="32" rx="3" fill="url(#acc)"/>
</svg>
