<svg xmlns="http://www.w3.org/2000/svg" viewBox="0 0 640 360" width="640" height="360">
<defs>
<radialGradient id="smk" cx=".5" cy=".5" r=".5"><stop offset="0" stop-color="#fff" stop-opacity=".95"/><stop offset=".55" stop-color="#f1f1f1" stop-opacity=".55"/><stop offset="1" stop-color="#fff" stop-opacity="0"/></radialGradient>
<linearGradient id="vig" x1="0" y1="0" x2="0" y2="1"><stop offset="0" stop-color="#000" stop-opacity=".25"/><stop offset=".35" stop-color="#000" stop-opacity="0"/><stop offset="1" stop-color="#000" stop-opacity=".3"/></linearGradient>
<linearGradient id="body" x1="0" y1="0" x2="0" y2="1"><stop offset="0" stop-color="#ff9a3d"/><stop offset="1" stop-color="#f06a10"/></linearGradient>
</defs>
<rect width="640" height="360" fill="#2f6a37"/>
<g fill="#285c30"><circle cx="40" cy="300" r="60"/><circle cx="600" cy="40" r="70"/><circle cx="520" cy="330" r="50"/></g>
<!-- road: big sweeping corner -->
<path d="M-40 420 C 120 210, 300 110, 700 60" fill="none" stroke="#6e7782" stroke-width="196"/>
<path d="M-40 420 C 120 210, 300 110, 700 60" fill="none" stroke="#c3c9d1" stroke-width="186"/>
<path d="M-40 420 C 120 210, 300 110, 700 60" fill="none" stroke="#6a6447" stroke-width="176"/>
<path d="M-40 420 C 120 210, 300 110, 700 60" fill="none" stroke="#f2f2f2" stroke-width="160"/>
<path d="M-40 420 C 120 210, 300 110, 700 60" fill="none" stroke="#e0443c" stroke-width="160" stroke-dasharray="16 16"/>
<path d="M-40 420 C 120 210, 300 110, 700 60" fill="none" stroke="#3a3d42" stroke-width="146"/>
<path d="M-40 420 C 120 210, 300 110, 700 60" fill="none" stroke="#f0c02e" stroke-width="3" stroke-dasharray="22 20"/>
<!-- tyre marks -->
<g fill="none" stroke="#141416" stroke-opacity=".55" stroke-width="7" stroke-linecap="round">
<path d="M40 330 C 110 250, 190 205, 282 196"/>
<path d="M58 352 C 130 270, 215 228, 300 222"/>
</g>
<!-- smoke -->
<g fill="url(#smk)">
<circle cx="258" cy="214" r="44"/><circle cx="206" cy="232" r="56"/><circle cx="150" cy="262" r="66"/><circle cx="96" cy="300" r="70"/><circle cx="292" cy="236" r="30"/><circle cx="230" cy="190" r="34"/>
</g>
<!-- car, drifting: travel ≈ -20°, body yawed to -62° -->
<g transform="translate(330 196) rotate(-58)">
<rect x="-46" y="-19" width="96" height="44" rx="11" fill="#000" opacity=".35" transform="translate(5 7)"/>
<rect x="-34" y="-25" width="20" height="9" rx="2" fill="#121418"/><rect x="-34" y="16" width="20" height="9" rx="2" fill="#121418"/>
<g transform="translate(26 -20) rotate(-28)"><rect x="-10" y="-4.5" width="20" height="9" rx="2" fill="#121418"/></g>
<g transform="translate(26 20) rotate(-28)"><rect x="-10" y="-4.5" width="20" height="9" rx="2" fill="#121418"/></g>
<rect x="-48" y="-20" width="96" height="40" rx="10" fill="url(#body)"/>
<rect x="-40" y="-17" width="80" height="4" rx="2" fill="#fff" opacity=".3"/>
<rect x="-40" y="13" width="80" height="4" rx="2" fill="#000" opacity=".2"/>
<path d="M14 -15 L14 15 L-30 16 L-30 -16 Z" fill="#18222e"/>
<rect x="-24" y="-14" width="30" height="28" rx="6" fill="#ff8a2a"/>
<rect x="-21" y="-11" width="24" height="5" rx="2" fill="#fff" opacity=".25"/>
<rect x="43" y="-15" width="4" height="9" fill="#fff6cf"/><rect x="43" y="6" width="4" height="9" fill="#fff6cf"/>
<rect x="-48" y="-15" width="4" height="9" fill="#ff3a3a"/><rect x="-48" y="6" width="4" height="9" fill="#ff3a3a"/>
<rect x="-46" y="-17" width="6" height="34" fill="#111" opacity=".85"/>
</g>
<!-- trees at the edges -->
<g>
<circle cx="560" cy="250" r="34" fill="#1f4d27"/><circle cx="553" cy="243" r="24" fill="#2f7a3a"/><circle cx="547" cy="236" r="10" fill="#4c9a4f"/>
<circle cx="612" cy="196" r="26" fill="#21502b"/><circle cx="606" cy="190" r="18" fill="#2c6e33"/>
<circle cx="70" cy="66" r="36" fill="#1f4d27"/><circle cx="63" cy="59" r="25" fill="#2f7a3a"/><circle cx="57" cy="52" r="10" fill="#4c9a4f"/>
<circle cx="150" cy="40" r="24" fill="#21502b"/><circle cx="145" cy="35" r="16" fill="#2c6e33"/>
</g>
<rect width="640" height="360" fill="url(#vig)"/>
<!-- HUD badge -->
<g font-family="system-ui,-apple-system,Segoe UI,Roboto,sans-serif" font-weight="900">
<rect x="372" y="244" width="244" height="88" rx="18" fill="#05060e" fill-opacity=".62"/>
<text x="390" y="290" font-size="38" fill="#7CFFB2">+12,480</text>
<text x="592" y="290" font-size="30" fill="#ffd23f" text-anchor="end">×4</text>
<rect x="392" y="304" width="200" height="9" rx="4.5" fill="#fff" fill-opacity=".15"/>
<rect x="392" y="304" width="132" height="9" rx="4.5" fill="#ffd23f"/>
</g>
</svg>
