<svg xmlns="http://www.w3.org/2000/svg" viewBox="0 0 640 360" width="640" height="360">
  <defs>
    <radialGradient id="bg" cx=".5" cy="0" r="1.1"><stop offset="0" stop-color="#4a2672"/><stop offset=".55" stop-color="#1a1033"/><stop offset="1" stop-color="#0e0820"/></radialGradient>
    <linearGradient id="bar" x1="0" y1="1" x2="0" y2="0"><stop offset="0" stop-color="#ff7aa8"/><stop offset="1" stop-color="#ffc857"/></linearGradient>
    <linearGradient id="fill" x1="0" y1="0" x2="1" y2="0"><stop offset="0" stop-color="#ff7aa8"/><stop offset="1" stop-color="#ffc857"/></linearGradient>
  </defs>
  <rect width="640" height="360" fill="url(#bg)"/>
  <g fill="#fff" opacity=".08"><ellipse cx="60" cy="300" rx="14" ry="10" transform="rotate(-25 60 300)"/><rect x="71" y="250" width="4" height="48"/><ellipse cx="585" cy="90" rx="14" ry="10" transform="rotate(-25 585 90)"/><rect x="596" y="40" width="4" height="48"/><ellipse cx="560" cy="300" rx="10" ry="7" transform="rotate(-25 560 300)"/><rect x="568" y="264" width="3" height="34"/></g>
  <g font-family="Arial, Helvetica, sans-serif" font-weight="700" font-size="17">
    <rect x="70" y="34" width="250" height="30" rx="8" fill="#ff5c7a" fill-opacity=".2" stroke="#ff5c7a" stroke-opacity=".6"/><text x="86" y="55" fill="#fff">✗  Wrong guess</text>
    <rect x="70" y="72" width="250" height="30" rx="8" fill="#fff" fill-opacity=".06" stroke="#fff" stroke-opacity=".12"/><text x="86" y="93" fill="#a598c8">»  Skipped</text>
    <rect x="70" y="110" width="250" height="30" rx="8" fill="#ffc857" fill-opacity=".18" stroke="#ffc857" stroke-opacity=".7"/><text x="86" y="131" fill="#fff">✗  Right composer</text>
    <rect x="70" y="148" width="250" height="30" rx="8" fill="#3ee6a8" fill-opacity=".25" stroke="#3ee6a8"/><text x="86" y="169" fill="#fff">✓  Correct!</text>
  </g>
  <g fill="url(#bar)">
    <rect x="360" y="150" width="14" height="30" rx="3"/><rect x="380" y="128" width="14" height="52" rx="3"/><rect x="400" y="100" width="14" height="80" rx="3"/><rect x="420" y="70" width="14" height="110" rx="3"/><rect x="440" y="48" width="14" height="132" rx="3"/><rect x="460" y="78" width="14" height="102" rx="3"/><rect x="480" y="56" width="14" height="124" rx="3"/><rect x="500" y="92" width="14" height="88" rx="3"/><rect x="520" y="120" width="14" height="60" rx="3"/><rect x="540" y="140" width="14" height="40" rx="3"/><rect x="560" y="132" width="14" height="48" rx="3"/>
  </g>
  <rect x="70" y="208" width="500" height="22" rx="11" fill="#000" fill-opacity=".45"/>
  <rect x="70" y="208" width="125" height="22" rx="11" fill="#ffc857" fill-opacity=".3"/>
  <rect x="70" y="208" width="88" height="22" rx="11" fill="url(#fill)"/>
  <g fill="#0e0820"><rect x="100" y="208" width="3" height="22"/><rect x="132" y="208" width="3" height="22"/><rect x="195" y="208" width="3" height="22"/><rect x="288" y="208" width="3" height="22"/><rect x="413" y="208" width="3" height="22"/></g>
  <circle cx="320" cy="294" r="40" fill="url(#fill)"/>
  <path d="M306 272 v44 l36 -22z" fill="#2a1640"/>
  <g font-family="Arial, Helvetica, sans-serif" font-weight="900" font-size="22"><text x="70" y="302" fill="#fff">1s</text><text x="535" y="302" fill="#fff">16s</text></g>
  <g font-size="22"><text x="410" y="30" fill="#ffc857" font-family="Arial, Helvetica, sans-serif" font-weight="900">♪ ♫</text></g>
</svg>
